<svg width="100%" height="100%" viewBox="0 0 16 17" fill="currentColor" xmlns="http://www.w3.org/2000/svg">
<rect width="16" height="16" transform="translate(0 0.511719)" fill="white" fill-opacity="0.01" style="mix-blend-mode:multiply"/>
<path d="M15 13.0117V12.0117H10.3838L9.98379 10.5117H13.5V9.51172H9.71739L8.48289 4.88282L7.51709 5.14062L9.41794 12.269C9.47496 12.482 9.60063 12.6702 9.77547 12.8044C9.9503 12.9387 10.1645 13.0116 10.385 13.0117H11V14.5117H4.99999V13.0117H7.99999V12.0117H3.38379L2.98379 10.5117H6.49999V9.51172H2.71739L1.48289 4.88282L0.51709 5.14062L2.41794 12.269C2.47496 12.482 2.60063 12.6702 2.77547 12.8044C2.9503 12.9387 3.16454 13.0116 3.38499 13.0117H3.99999V14.5117H0.99999V15.5117H15V14.5117H12V13.0117H15Z" />
<path d="M13.6515 1.51172C13.4736 1.51172 13.2976 1.54738 13.1337 1.61659C12.9699 1.6858 12.8215 1.78716 12.6975 1.91467L12.5 2.11732L12.3024 1.91467C12.1784 1.78716 12.0301 1.6858 11.8663 1.61659C11.7024 1.54738 11.5264 1.51172 11.3485 1.51172C11.1706 1.51172 10.9946 1.54738 10.8307 1.61659C10.6669 1.6858 10.5186 1.78716 10.3946 1.91467C10.1415 2.17578 9.99999 2.52512 9.99999 2.88875C9.99999 3.25237 10.1415 3.60172 10.3946 3.86282L12.5 6.01172L14.6054 3.86282C14.8585 3.60172 15 3.25237 15 2.88875C15 2.52512 14.8585 2.17578 14.6054 1.91467C14.4814 1.78717 14.3331 1.68581 14.1692 1.6166C14.0054 1.54739 13.8293 1.51173 13.6515 1.51172Z" />
</svg>


