<svg xmlns="http://www.w3.org/2000/svg" width="100%" height="100%" viewBox="0 0 21 20" fill="none">
<path d="M17.5834 6.66667V13.5C17.5834 14.9001 17.5834 15.6002 17.3109 16.135C17.0712 16.6054 16.6888 16.9878 16.2184 17.2275C15.6836 17.5 14.9835 17.5 13.5834 17.5H7.41675C6.01662 17.5 5.31655 17.5 4.78177 17.2275C4.31137 16.9878 3.92892 16.6054 3.68923 16.135C3.41675 15.6002 3.41675 14.9001 3.41675 13.5V6.66667M3.50008 2.5H17.5001C17.9668 2.5 18.2001 2.5 18.3784 2.59083C18.5352 2.67072 18.6627 2.79821 18.7426 2.95501C18.8334 3.13327 18.8334 3.36662 18.8334 3.83333V5.33333C18.8334 5.80004 18.8334 6.0334 18.7426 6.21166C18.6627 6.36846 18.5352 6.49594 18.3784 6.57584C18.2001 6.66667 17.9668 6.66667 17.5001 6.66667H3.50008C3.03337 6.66667 2.80002 6.66667 2.62176 6.57584C2.46495 6.49594 2.33747 6.36846 2.25758 6.21166C2.16675 6.0334 2.16675 5.80004 2.16675 5.33333V3.83333C2.16675 3.36662 2.16675 3.13327 2.25758 2.95501C2.33747 2.79821 2.46495 2.67072 2.62176 2.59083C2.80002 2.5 3.03337 2.5 3.50008 2.5ZM8.50008 9.58333H12.5001C12.9668 9.58333 13.2001 9.58333 13.3784 9.67416C13.5352 9.75406 13.6627 9.88154 13.7426 10.0383C13.8334 10.2166 13.8334 10.45 13.8334 10.9167V11.5833C13.8334 12.05 13.8334 12.2834 13.7426 12.4617C13.6627 12.6185 13.5352 12.7459 13.3784 12.8258C13.2001 12.9167 12.9668 12.9167 12.5001 12.9167H8.50008C8.03337 12.9167 7.80002 12.9167 7.62176 12.8258C7.46495 12.7459 7.33747 12.6185 7.25758 12.4617C7.16675 12.2834 7.16675 12.05 7.16675 11.5833V10.9167C7.16675 10.45 7.16675 10.2166 7.25758 10.0383C7.33747 9.88154 7.46495 9.75406 7.62176 9.67416C7.80002 9.58333 8.03337 9.58333 8.50008 9.58333Z" stroke="currentStroke" stroke-width="1.5" stroke-linecap="round" stroke-linejoin="round"/>
</svg>