<svg xmlns="http://www.w3.org/2000/svg" width="100%" height="100%" viewBox="0 0 21 20" fill="none">
<path d="M15.4999 7.50001V3.00001C15.4999 2.53329 15.4999 2.29994 15.4091 2.12168C15.3292 1.96488 15.2017 1.83739 15.0449 1.7575C14.8667 1.66667 14.6333 1.66667 14.1666 1.66667H6.83325C6.36654 1.66667 6.13319 1.66667 5.95493 1.7575C5.79812 1.83739 5.67064 1.96488 5.59075 2.12168C5.49992 2.29994 5.49992 2.53329 5.49992 3.00001V7.50001M8.83325 5.00001V4.16667M12.1666 5.00001V4.16667M7.83325 18.3333H13.1666C14.5667 18.3333 15.2668 18.3333 15.8016 18.0609C16.272 17.8212 16.6544 17.4387 16.8941 16.9683C17.1666 16.4335 17.1666 15.7335 17.1666 14.3333V10.1667C17.1666 9.23325 17.1666 8.76654 16.9849 8.41002C16.8251 8.09642 16.5702 7.84145 16.2566 7.68166C15.9 7.50001 15.4333 7.50001 14.4999 7.50001H6.49992C5.5665 7.50001 5.09979 7.50001 4.74327 7.68166C4.42966 7.84145 4.1747 8.09642 4.01491 8.41002C3.83325 8.76654 3.83325 9.23325 3.83325 10.1667V14.3333C3.83325 15.7335 3.83325 16.4335 4.10574 16.9683C4.34542 17.4387 4.72787 17.8212 5.19828 18.0609C5.73306 18.3333 6.43312 18.3333 7.83325 18.3333Z" stroke="currentColor" stroke-width="1.5" stroke-linecap="round" stroke-linejoin="round"/>
</svg>